<?xml version="1.0" encoding="utf-8"?>
<!-- Generator: Adobe Illustrator 22.0.1, SVG Export Plug-In . SVG Version: 6.00 Build 0)  -->
<svg version="1.1" xmlns="http://www.w3.org/2000/svg" xmlns:xlink="http://www.w3.org/1999/xlink" x="0px" y="0px"
	 viewBox="0 0 841.9 595.3" style="enable-background:new 0 0 841.9 595.3;" xml:space="preserve">
<style type="text/css">
	.st0{fill:#EA7A2F;}
	.st1{fill:#A7489B;}
	.st2{fill:#F3EA21;}
	.st3{fill:#4065AF;}
	.st4{fill:#FFF200;stroke:#A1722A;stroke-miterlimit:10;}
	.st5{fill:#A7509E;}
	.st6{fill:#448ECC;}
	.st7{fill:#EEAD1F;}
	.st8{fill:#FFF200;}
	.st9{fill:#70C176;}
	.st10{fill:#6C3214;stroke:#A1722A;stroke-miterlimit:10;}
	.st11{fill:#30302D;}
	.st12{fill:#777776;stroke:#000000;stroke-linecap:round;stroke-miterlimit:10;}
	.st13{fill:url(#SVGID_1_);}
	.st14{fill:url(#SVGID_2_);}
	.st15{fill:url(#SVGID_3_);}
	.st16{fill:url(#SVGID_4_);}
	.st17{fill:url(#SVGID_5_);}
	.st18{fill:url(#SVGID_6_);}
	.st19{fill:url(#SVGID_7_);}
	.st20{fill:url(#SVGID_8_);}
	.st21{fill:url(#SVGID_9_);}
	.st22{fill:#4F3D30;}
	.st23{opacity:0.69;fill:url(#SVGID_10_);}
	.st24{fill:#9E9D97;}
	.st25{opacity:0.94;fill:#92CD92;}
	.st26{fill:none;}
	.st27{opacity:0.15;fill:url(#SVGID_11_);}
	.st28{opacity:0.5;fill:url(#SVGID_12_);}
	.st29{fill:url(#SVGID_13_);}
	.st30{opacity:3.000000e-02;fill:none;stroke:#FFFFFF;stroke-width:2;stroke-miterlimit:10;}
	.st31{fill:url(#SVGID_14_);}
	.st32{fill:#D3D0D1;}
	.st33{fill:#474748;}
	.st34{fill:url(#SVGID_15_);}
	.st35{fill:url(#SVGID_16_);}
	.st36{fill:url(#SVGID_17_);}
	.st37{fill:url(#SVGID_18_);}
	.st38{fill:url(#SVGID_19_);}
	.st39{fill:url(#SVGID_20_);}
	.st40{fill:url(#SVGID_21_);}
	.st41{fill:url(#SVGID_22_);}
	.st42{fill:url(#SVGID_23_);}
	.st43{fill:url(#SVGID_24_);}
	.st44{fill:url(#SVGID_25_);}
	.st45{fill:url(#SVGID_26_);}
	.st46{fill:url(#SVGID_27_);}
	.st47{opacity:0.26;fill:url(#SVGID_28_);}
	.st48{fill:url(#SVGID_29_);}
	.st49{fill:url(#SVGID_30_);}
	.st50{fill:url(#SVGID_31_);}
	.st51{fill:#B0403F;}
	.st52{fill:#7F4647;}
	.st53{opacity:0.31;fill:url(#SVGID_32_);}
	.st54{fill:url(#SVGID_33_);}
	.st55{fill:url(#SVGID_34_);}
	.st56{fill:url(#SVGID_35_);}
	.st57{fill:url(#SVGID_36_);}
	.st58{fill:url(#SVGID_37_);}
	.st59{fill:url(#SVGID_38_);}
	.st60{fill:url(#SVGID_39_);}
	.st61{fill:url(#SVGID_40_);}
	.st62{fill:url(#SVGID_41_);}
	.st63{opacity:0.69;fill:url(#SVGID_42_);}
	.st64{opacity:0.15;fill:url(#SVGID_43_);}
	.st65{opacity:0.5;fill:url(#SVGID_44_);}
	.st66{fill:url(#SVGID_45_);}
	.st67{fill:url(#SVGID_46_);}
	.st68{fill:url(#SVGID_47_);}
	.st69{fill:url(#SVGID_48_);}
	.st70{fill:url(#SVGID_49_);}
	.st71{fill:url(#SVGID_50_);}
	.st72{fill:url(#SVGID_51_);}
	.st73{fill:url(#SVGID_52_);}
	.st74{fill:url(#SVGID_53_);}
	.st75{fill:url(#SVGID_54_);}
	.st76{fill:url(#SVGID_55_);}
	.st77{fill:url(#SVGID_56_);}
	.st78{fill:url(#SVGID_57_);}
	.st79{fill:url(#SVGID_58_);}
	.st80{fill:url(#SVGID_59_);}
	.st81{opacity:0.26;fill:url(#SVGID_60_);}
	.st82{fill:url(#SVGID_61_);}
	.st83{fill:url(#SVGID_62_);}
	.st84{fill:url(#SVGID_63_);}
</style>
<g id="Layer_2">
</g>
<g id="Layer_3">
</g>
<g id="Layer_4">
</g>
<g id="Layer_1">
</g>
<g id="Layer_5">
	<g>
		<linearGradient id="SVGID_1_" gradientUnits="userSpaceOnUse" x1="529.3603" y1="167.0428" x2="195.4751" y2="376.7558">
			<stop  offset="0" style="stop-color:#3A7EC1"/>
			<stop  offset="0.3312" style="stop-color:#3A7DC0"/>
			<stop  offset="0.512" style="stop-color:#3A78BD"/>
			<stop  offset="0.6566" style="stop-color:#3B71B8"/>
			<stop  offset="0.782" style="stop-color:#3C67B1"/>
			<stop  offset="0.8938" style="stop-color:#3D5AA9"/>
			<stop  offset="0.9964" style="stop-color:#3E499E"/>
			<stop  offset="1" style="stop-color:#3E489E"/>
		</linearGradient>
		<circle class="st13" cx="321.4" cy="297.6" r="209.7"/>
		<linearGradient id="SVGID_2_" gradientUnits="userSpaceOnUse" x1="471.0021" y1="340.1817" x2="730.384" y2="340.1817">
			<stop  offset="0" style="stop-color:#3A7EC1"/>
			<stop  offset="0.3312" style="stop-color:#3A7DC0"/>
			<stop  offset="0.512" style="stop-color:#3A78BD"/>
			<stop  offset="0.6566" style="stop-color:#3B71B8"/>
			<stop  offset="0.782" style="stop-color:#3C67B1"/>
			<stop  offset="0.8938" style="stop-color:#3D5AA9"/>
			<stop  offset="0.9964" style="stop-color:#3E499E"/>
			<stop  offset="1" style="stop-color:#3E489E"/>
		</linearGradient>
		<ellipse class="st14" cx="600.7" cy="340.2" rx="129.7" ry="121.4"/>
		<linearGradient id="SVGID_3_" gradientUnits="userSpaceOnUse" x1="496.4878" y1="414.0912" x2="591.0894" y2="414.0912">
			<stop  offset="0" style="stop-color:#3A7EC1"/>
			<stop  offset="0.3312" style="stop-color:#3A7DC0"/>
			<stop  offset="0.512" style="stop-color:#3A78BD"/>
			<stop  offset="0.6566" style="stop-color:#3B71B8"/>
			<stop  offset="0.782" style="stop-color:#3C67B1"/>
			<stop  offset="0.8938" style="stop-color:#3D5AA9"/>
			<stop  offset="0.9964" style="stop-color:#3E499E"/>
			<stop  offset="1" style="stop-color:#3E489E"/>
		</linearGradient>
		<ellipse class="st15" cx="543.8" cy="414.1" rx="47.3" ry="42"/>
		<linearGradient id="SVGID_4_" gradientUnits="userSpaceOnUse" x1="527.3655" y1="427.3561" x2="459.7607" y2="441.153">
			<stop  offset="0" style="stop-color:#3A7EC1"/>
			<stop  offset="0.3312" style="stop-color:#3A7DC0"/>
			<stop  offset="0.512" style="stop-color:#3A78BD"/>
			<stop  offset="0.6566" style="stop-color:#3B71B8"/>
			<stop  offset="0.782" style="stop-color:#3C67B1"/>
			<stop  offset="0.8938" style="stop-color:#3D5AA9"/>
			<stop  offset="0.9964" style="stop-color:#3E499E"/>
			<stop  offset="1" style="stop-color:#3E489E"/>
		</linearGradient>
		<ellipse class="st16" cx="496.2" cy="433.7" rx="30.7" ry="19.6"/>
		<g>
			<g>
				<linearGradient id="SVGID_5_" gradientUnits="userSpaceOnUse" x1="272.2147" y1="208.3603" x2="183.4962" y2="226.4661">
					<stop  offset="0" style="stop-color:#A96027"/>
					<stop  offset="0.3463" style="stop-color:#A75F26"/>
					<stop  offset="0.5353" style="stop-color:#9E5D26"/>
					<stop  offset="0.6865" style="stop-color:#8F5924"/>
					<stop  offset="0.8175" style="stop-color:#7B5221"/>
					<stop  offset="0.9345" style="stop-color:#644A1D"/>
					<stop  offset="1" style="stop-color:#54441A"/>
				</linearGradient>
				<path class="st17" d="M261.5,211.1c1,0.4,1.9,0.5,2.6,0.3c-0.9-0.8-1.8-1.6-2.8-2.4C261.2,210.2,261,211.1,261.5,211.1z"/>
				<linearGradient id="SVGID_6_" gradientUnits="userSpaceOnUse" x1="280.8062" y1="250.4582" x2="192.0876" y2="268.5641">
					<stop  offset="0" style="stop-color:#A96027"/>
					<stop  offset="0.3463" style="stop-color:#A75F26"/>
					<stop  offset="0.5353" style="stop-color:#9E5D26"/>
					<stop  offset="0.6865" style="stop-color:#8F5924"/>
					<stop  offset="0.8175" style="stop-color:#7B5221"/>
					<stop  offset="0.9345" style="stop-color:#644A1D"/>
					<stop  offset="1" style="stop-color:#54441A"/>
				</linearGradient>
				<path class="st18" d="M270,251.5c-0.8,0-1.6,0-2.4,0c-4.1,0-8.4,0-12.7,0c-0.9,0-1.7,0-2.8,0.1c-5.5,1.6-12.5-1.4-18.6-0.1
					c-0.9,0-1.8,0-2.7,0c-1,0-1.9,0-2.9,0c-1,0-1.9,0-2.9,0c-6.4,1.7-11.4-1.3-17,0c-0.9,0-1.8,0-2.8,0s-1.8,0-2.7,0
					c-0.9,0.1-1.8,0.5-3.1,1.5c-3.4,3.1-6.9,3.3-10,2c0.7,2.9,1.6,5.7,2.8,8.3c0.2-0.1,0.4-0.2,0.6-0.3c6.7-3,13.7,0,19.7,5
					c3,1,3-2,5.2-3.2c0.6-0.7,1.4-0.7,2.3-0.8c5.9,0,11.8,0,17.8,0c0.9-0.1,1.8-0.2,3.1-1c8.7-7,13.7,4,21.7,6c3,0,4-4,7.1-5
					c0.8,0,1.5,0,2.3,0c1.2-0.8,2.4-1.7,3.6-2.7c1.3-3.3,2.2-6.7,2.7-10.3C275.4,251.2,272.8,251.3,270,251.5z"/>
				<linearGradient id="SVGID_7_" gradientUnits="userSpaceOnUse" x1="270.1616" y1="198.2998" x2="181.443" y2="216.4056">
					<stop  offset="0" style="stop-color:#A96027"/>
					<stop  offset="0.3463" style="stop-color:#A75F26"/>
					<stop  offset="0.5353" style="stop-color:#9E5D26"/>
					<stop  offset="0.6865" style="stop-color:#8F5924"/>
					<stop  offset="0.8175" style="stop-color:#7B5221"/>
					<stop  offset="0.9345" style="stop-color:#644A1D"/>
					<stop  offset="1" style="stop-color:#54441A"/>
				</linearGradient>
				<path class="st19" d="M215.5,214.1c6,4,12-1,15.6-4.6c0.8,0,1.6,0,2.4,0c2.5,0,5,0,7.4,0c0.9-0.1,2-0.8,3.3-1.5
					c3.5-1.9,7.4-3,11-2.9c-6.5-3.6-13.9-5.6-21.9-5.6c-7.6,0-14.8,1.9-21.1,5.2C215.6,206.6,212.9,211.5,215.5,214.1z"/>
				<linearGradient id="SVGID_8_" gradientUnits="userSpaceOnUse" x1="275.4842" y1="224.4477" x2="186.7656" y2="242.5535">
					<stop  offset="0" style="stop-color:#A96027"/>
					<stop  offset="0.3463" style="stop-color:#A75F26"/>
					<stop  offset="0.5353" style="stop-color:#9E5D26"/>
					<stop  offset="0.6865" style="stop-color:#8F5924"/>
					<stop  offset="0.8175" style="stop-color:#7B5221"/>
					<stop  offset="0.9345" style="stop-color:#644A1D"/>
					<stop  offset="1" style="stop-color:#54441A"/>
				</linearGradient>
				<path class="st20" d="M247.5,221.1c-1-1-3,1-3.9,2.4c-0.8,0-1.6,0-2.5,0c-5.7,0-11.5,0-17.3,0c-0.8,0-1.6,0-2.4,0
					c-5-0.4-9-0.4-14.1,0c-0.8,0-1.5,0-2.3,0c-4,0-7.8,0-11.6,0c-2.3,4.3-3.9,8.9-4.7,13.9c1.6,0.6,3.2,1.5,4.7,2.8c3,1,4-3,6.3-2.7
					c0.8,0,1.6,0,2.4,0c5.7,0,11.7,0,17.7,0c0.9,0,1.8,0,2.7,0c8.8-1.3,18.8-19.3,26.8-6.3c-5-1-8,3-9,7c0,1,1,4,2,5
					c5.2,5.2,12.8,3.8,17-0.6c0.7-0.7,1.3-1.5,1.8-3.3c1.2-4.2,4.2-6.2,8.2-7.2c5,0,5,5,7,8c0.6,0.6,1.3,1.1,2.1,1.4
					c-0.4-6.3-2.2-12.3-5-17.7C264.6,224.4,255.7,224.3,247.5,221.1z"/>
				<linearGradient id="SVGID_9_" gradientUnits="userSpaceOnUse" x1="285.014" y1="271.0769" x2="196.2955" y2="289.1827">
					<stop  offset="0" style="stop-color:#A96027"/>
					<stop  offset="0.3463" style="stop-color:#A75F26"/>
					<stop  offset="0.5353" style="stop-color:#9E5D26"/>
					<stop  offset="0.6865" style="stop-color:#8F5924"/>
					<stop  offset="0.8175" style="stop-color:#7B5221"/>
					<stop  offset="0.9345" style="stop-color:#644A1D"/>
					<stop  offset="1" style="stop-color:#54441A"/>
				</linearGradient>
				<path class="st21" d="M246.5,275.1c-3-1-4,1-6.2,3c-0.8,0-1.7,0-2.5,0c-5.9,0-11.9,0-17.8,0c-0.9,0.1-1.8,0.1-3,0.5
					c-4.6,1.7-9.5,1.7-13.7-0.2c8,7.2,18.6,11.6,30.2,11.6c10.8,0,20.8-3.8,28.6-10.2C256.7,281.1,250.9,277.7,246.5,275.1z"/>
				<path class="st22" d="M264.1,211.5c-0.8,0.2-1.6,0.1-2.6-0.3c-0.5,0-0.3-0.9-0.1-2c-1.9-1.5-3.9-2.9-6.1-4
					c-3.7-0.1-7.5,1-11,2.9c-1.3,0.7-2.4,1.4-3.3,1.5c-2.5,0-4.9,0-7.4,0c-0.8,0-1.6,0-2.4,0c-3.6,3.6-9.6,8.6-15.6,4.6
					c-2.6-2.6,0.1-7.6-3.2-9.4c-8,4.2-14.6,10.8-18.8,18.8c3.7,0,7.6,0,11.6,0c0.8,0,1.5,0,2.3,0c5.2-0.4,9.2-0.4,14.1,0
					c0.8,0,1.6,0,2.4,0c5.7,0,11.5,0,17.3,0c0.8,0,1.6,0,2.5,0c0.9-1.4,2.9-3.4,3.9-2.4c8.2,3.2,17.1,3.3,26.1,2.7
					C271.2,219.2,267.9,215,264.1,211.5z"/>
				<path class="st22" d="M269.5,232.1c-4,1-7,3-8.2,7.2c-0.4,1.7-1.1,2.6-1.8,3.3c-4.3,4.3-11.8,5.8-17,0.6c-1-1-2-4-2-5
					c1-4,4-8,9-7c-8-13-18,5-26.8,6.3c-0.9,0-1.8,0-2.7,0c-6.1,0-12,0-17.7,0c-0.8,0-1.6,0-2.4,0c-2.3-0.3-3.3,3.7-6.3,2.7
					c-1.6-1.3-3.1-2.2-4.7-2.8c-0.4,2.4-0.6,4.9-0.6,7.4c0,3.5,0.4,7,1.2,10.3c3.1,1.3,6.6,1.1,10-2c1.3-1,2.2-1.4,3.1-1.5
					c0.9,0,1.8,0,2.7,0s1.8,0,2.8,0c5.6-1.3,10.6,1.7,17,0c1,0,1.9,0,2.9,0c1,0,1.9,0,2.9,0c0.9,0,1.8,0,2.7,0
					c6.1-1.3,13.1,1.7,18.6,0.1c1-0.1,1.9-0.1,2.8-0.1c4.4,0,8.6,0,12.7,0c0.8,0,1.6,0,2.4,0c2.8-0.2,5.4-0.3,8.2-0.2
					c0.3-2.1,0.5-4.3,0.5-6.5c0-1.1-0.1-2.1-0.1-3.2c-0.8-0.3-1.5-0.8-2.1-1.4C274.5,237.1,274.5,232.1,269.5,232.1z"/>
				<path class="st22" d="M269.6,264.2c-3.1,1-4.1,5-7.1,5c-8-2-13-13-21.7-6c-1.3,0.9-2.2,0.9-3.1,1c-5.9,0-11.9,0-17.8,0
					c-0.8,0.1-1.7,0.1-2.3,0.8c-2.2,1.2-2.2,4.2-5.2,3.2c-6-5-13-8-19.7-5c-0.2,0.1-0.4,0.2-0.6,0.3c2.6,5.8,6.4,10.9,11,15.1
					c4.2,2,9.1,2,13.7,0.2c1.2-0.4,2.1-0.4,3-0.5c5.9,0,11.8,0,17.8,0c0.8,0,1.7,0,2.5,0c2.2-2,3.2-4,6.2-3c4.4,2.6,10.3,6,15.5,4.7
					c5.9-4.8,10.6-11.1,13.5-18.3c-1.2,0.9-2.4,1.9-3.6,2.7C271.2,264.2,270.4,264.2,269.6,264.2z"/>
			</g>
			<linearGradient id="SVGID_10_" gradientUnits="userSpaceOnUse" x1="277.7764" y1="235.6799" x2="189.0839" y2="253.7804">
				<stop  offset="0" style="stop-color:#F5876C"/>
				<stop  offset="0.3051" style="stop-color:#EF8469"/>
				<stop  offset="0.4717" style="stop-color:#E17F63"/>
				<stop  offset="0.6049" style="stop-color:#CE785A"/>
				<stop  offset="0.7205" style="stop-color:#B56E4D"/>
				<stop  offset="0.8246" style="stop-color:#97623C"/>
				<stop  offset="0.919" style="stop-color:#75532A"/>
				<stop  offset="1" style="stop-color:#54441A"/>
			</linearGradient>
			<path class="st23" d="M278.6,241.5c-0.4-6.3-2.2-12.3-5-17.7c-2.4-4.7-5.6-8.8-9.5-12.4c-0.9-0.8-1.8-1.6-2.8-2.4
				c-1.9-1.5-3.9-2.9-6.1-4c-6.5-3.6-13.9-5.6-21.9-5.6c-7.6,0-14.8,1.9-21.1,5.2c-8,4.2-14.6,10.8-18.8,18.8
				c-2.3,4.3-3.9,8.9-4.7,13.9c-0.4,2.4-0.6,4.9-0.6,7.4c0,3.5,0.4,7,1.2,10.3c0.7,2.9,1.6,5.7,2.8,8.3c2.6,5.8,6.4,10.9,11,15.1
				c8,7.2,18.6,11.6,30.2,11.6c10.8,0,20.8-3.8,28.6-10.2c5.9-4.8,10.6-11.1,13.5-18.3c1.3-3.3,2.2-6.7,2.7-10.3
				c0.3-2.1,0.5-4.3,0.5-6.5C278.7,243.7,278.6,242.6,278.6,241.5z"/>
		</g>
		<g>
			<path class="st24" d="M638,378.4c0,22.9-98.2,41.5-219.3,41.5c-121.1,0-219.3-18.6-219.3-41.5c0-7.5,10.6-14.6,29.2-20.7
				c0.8-0.3,1.6-0.5,2.4-0.8c38.4-12,108.1-20,187.6-20C539.8,336.9,638,355.5,638,378.4z"/>
			<path class="st25" d="M418.7,207.5c-78.4,0-141.9,63.5-141.9,141.9c33.3,10.9,84,23.3,146.5,22.7c58-0.6,105.3-12.1,137.4-22.7
				C544.8,267.1,483.4,207.5,418.7,207.5z"/>
			<g>
				<line class="st26" x1="349.7" y1="287.3" x2="365.6" y2="298.5"/>
				<ellipse class="st26" cx="349.7" cy="287.3" rx="16.2" ry="16.2"/>
				<ellipse class="st26" cx="349.7" cy="287.3" rx="19.4" ry="19.4"/>
				<polyline class="st26" points="349.7,287.3 351,299.3 349.7,287.3 348.5,275.4 349.7,287.3 337.7,288.6 349.7,287.3 
					361.7,286.1 349.7,287.3 360.3,345.6 349.7,287.3 339.1,229.1 349.7,287.3 291.3,297.9 349.7,287.3 408.1,276.7 349.7,287.3 
					389.3,315.2 349.7,287.3 310.1,259.5 349.7,287.3 321.8,326.8 349.7,287.3 377.6,247.8 349.7,287.3 399.6,324.1 349.7,287.3 
					299.9,250.6 349.7,287.3 312.9,337 349.7,287.3 386.5,237.6 349.7,287.3 353.9,289.4 349.7,287.3 345.5,285.3 349.7,287.3 
					347.6,291.5 349.7,287.3 351.8,283.2 349.7,287.3 367.2,301.8 349.7,287.3 332.2,272.9 349.7,287.3 335.2,304.8 349.7,287.3 
					364.2,269.8 349.7,287.3 429.8,294 349.7,287.3 269.6,280.6 349.7,287.3 343,367.2 349.7,287.3 356.4,207.5 349.7,287.3 
					376,346.7 349.7,287.3 323.4,227.9 349.7,287.3 290.1,313.5 349.7,287.3 409.3,261.1 349.7,287.3 403.7,341.9 349.7,287.3 
					295.7,232.8 349.7,287.3 295,341.2 349.7,287.3 404.4,233.5 349.7,287.3 376.6,330 349.7,287.3 322.9,244.7 349.7,287.3 
					306.9,314.1 349.7,287.3 392.5,260.6 349.7,287.3 429.7,284.3 349.7,287.3 269.7,290.3 349.7,287.3 352.7,367.1 349.7,287.3 
					346.7,207.5 349.7,287.3 363.3,303.8 349.7,287.3 336.1,270.8 349.7,287.3 333.2,300.9 349.7,287.3 366.2,273.8 349.7,287.3 
					384.7,364.5 349.7,287.3 314.7,210.2 349.7,287.3 272.3,322.2 349.7,287.3 427.1,252.4 349.7,287.3 387.4,312.6 349.7,287.3 
					312,262 349.7,287.3 324.3,324.9 349.7,287.3 375.1,249.8 349.7,287.3 377.5,332.2 349.7,287.3 321.9,242.5 349.7,287.3 
					304.7,315.1 349.7,287.3 394.7,259.6 				"/>
				
					<radialGradient id="SVGID_11_" cx="946.4655" cy="202.7551" r="62.4233" gradientTransform="matrix(0.6231 0 0 0.6214 -240.0253 161.3291)" gradientUnits="userSpaceOnUse">
					<stop  offset="0" style="stop-color:#000000"/>
					<stop  offset="0.73" style="stop-color:#93432A"/>
					<stop  offset="1" style="stop-color:#000000"/>
				</radialGradient>
				<ellipse class="st27" cx="349.7" cy="287.3" rx="38.9" ry="38.8"/>
				
					<radialGradient id="SVGID_12_" cx="946.4655" cy="202.7551" r="31.2115" gradientTransform="matrix(0.6231 0 0 0.6214 -240.0253 161.3291)" gradientUnits="userSpaceOnUse">
					<stop  offset="0.15" style="stop-color:#FFFFFF"/>
					<stop  offset="0.2134" style="stop-color:#D7C0BE"/>
					<stop  offset="0.2931" style="stop-color:#B68A8A"/>
					<stop  offset="0.362" style="stop-color:#A16A6B"/>
					<stop  offset="0.4166" style="stop-color:#95585B"/>
					<stop  offset="0.45" style="stop-color:#915155"/>
					<stop  offset="0.5442" style="stop-color:#78312E"/>
					<stop  offset="0.6472" style="stop-color:#5C0E05"/>
					<stop  offset="0.7362" style="stop-color:#410000"/>
					<stop  offset="0.8068" style="stop-color:#200000"/>
					<stop  offset="0.85" style="stop-color:#000000"/>
					<stop  offset="0.856" style="stop-color:#120000"/>
					<stop  offset="0.8623" style="stop-color:#300000"/>
					<stop  offset="0.8686" style="stop-color:#470000"/>
					<stop  offset="0.875" style="stop-color:#5C0000"/>
					<stop  offset="0.8815" style="stop-color:#751400"/>
					<stop  offset="0.888" style="stop-color:#912A15"/>
					<stop  offset="0.8945" style="stop-color:#B44126"/>
					<stop  offset="0.9" style="stop-color:#D65836"/>
					<stop  offset="0.9063" style="stop-color:#BD472B"/>
					<stop  offset="0.916" style="stop-color:#9D311B"/>
					<stop  offset="0.9262" style="stop-color:#801D09"/>
					<stop  offset="0.9367" style="stop-color:#690900"/>
					<stop  offset="0.9475" style="stop-color:#530000"/>
					<stop  offset="0.9588" style="stop-color:#410000"/>
					<stop  offset="0.9707" style="stop-color:#290000"/>
					<stop  offset="0.9838" style="stop-color:#0F0000"/>
					<stop  offset="1" style="stop-color:#000000"/>
				</radialGradient>
				<ellipse class="st28" cx="349.7" cy="287.3" rx="19.4" ry="19.4"/>
				
					<radialGradient id="SVGID_13_" cx="946.4655" cy="202.7551" r="26.0097" gradientTransform="matrix(0.6231 0 0 0.6214 -240.0253 161.3291)" gradientUnits="userSpaceOnUse">
					<stop  offset="0.15" style="stop-color:#FFFFFF"/>
					<stop  offset="0.2824" style="stop-color:#9C9593"/>
					<stop  offset="0.4253" style="stop-color:#5A5250"/>
					<stop  offset="0.5636" style="stop-color:#302A28"/>
					<stop  offset="0.6936" style="stop-color:#0F0704"/>
					<stop  offset="0.8134" style="stop-color:#000000"/>
					<stop  offset="0.9192" style="stop-color:#000000"/>
					<stop  offset="1" style="stop-color:#000000"/>
				</radialGradient>
				<ellipse class="st29" cx="349.7" cy="287.3" rx="16.2" ry="16.2"/>
				<polyline class="st30" points="349.7,287.3 351,299.3 349.7,287.3 348.5,275.4 349.7,287.3 337.7,288.6 349.7,287.3 
					361.7,286.1 349.7,287.3 360.3,345.6 349.7,287.3 339.1,229.1 349.7,287.3 291.3,297.9 349.7,287.3 408.1,276.7 349.7,287.3 
					389.3,315.2 349.7,287.3 310.1,259.5 349.7,287.3 321.8,326.8 349.7,287.3 377.6,247.8 349.7,287.3 399.6,324.1 349.7,287.3 
					299.9,250.6 349.7,287.3 312.9,337 349.7,287.3 386.5,237.6 349.7,287.3 353.9,289.4 349.7,287.3 345.5,285.3 349.7,287.3 
					347.6,291.5 349.7,287.3 351.8,283.2 349.7,287.3 367.2,301.8 349.7,287.3 332.2,272.9 349.7,287.3 335.2,304.8 349.7,287.3 
					364.2,269.8 349.7,287.3 429.8,294 349.7,287.3 269.6,280.6 349.7,287.3 343,367.2 349.7,287.3 356.4,207.5 349.7,287.3 
					376,346.7 349.7,287.3 323.4,227.9 349.7,287.3 290.1,313.5 349.7,287.3 409.3,261.1 349.7,287.3 403.7,341.9 349.7,287.3 
					295.7,232.8 349.7,287.3 295,341.2 349.7,287.3 404.4,233.5 349.7,287.3 376.6,330 349.7,287.3 322.9,244.7 349.7,287.3 
					306.9,314.1 349.7,287.3 392.5,260.6 349.7,287.3 429.7,284.3 349.7,287.3 269.7,290.3 349.7,287.3 352.7,367.1 349.7,287.3 
					346.7,207.5 349.7,287.3 363.3,303.8 349.7,287.3 336.1,270.8 349.7,287.3 333.2,300.9 349.7,287.3 366.2,273.8 349.7,287.3 
					384.7,364.5 349.7,287.3 314.7,210.2 349.7,287.3 272.3,322.2 349.7,287.3 427.1,252.4 349.7,287.3 387.4,312.6 349.7,287.3 
					312,262 349.7,287.3 324.3,324.9 349.7,287.3 375.1,249.8 349.7,287.3 377.5,332.2 349.7,287.3 321.9,242.5 349.7,287.3 
					304.7,315.1 349.7,287.3 394.7,259.6 				"/>
			</g>
			
				<radialGradient id="SVGID_14_" cx="132.3689" cy="309.1475" r="15.8966" gradientTransform="matrix(1.4865 0 0 1.4865 212.3206 -143.009)" gradientUnits="userSpaceOnUse">
				<stop  offset="0.15" style="stop-color:#FFFFFF"/>
				<stop  offset="0.2824" style="stop-color:#9C9593"/>
				<stop  offset="0.4253" style="stop-color:#5A5250"/>
				<stop  offset="0.5636" style="stop-color:#302A28"/>
				<stop  offset="0.6936" style="stop-color:#0F0704"/>
				<stop  offset="0.8134" style="stop-color:#000000"/>
				<stop  offset="0.9192" style="stop-color:#000000"/>
				<stop  offset="1" style="stop-color:#000000"/>
			</radialGradient>
			<circle class="st31" cx="409.1" cy="316.6" r="23.6"/>
			<polygon class="st32" points="418.7,377 406.9,381.3 400.6,392.2 402.8,404.6 412.4,412.6 424.9,412.6 434.6,404.6 436.7,392.2 
				430.5,381.3 			"/>
			<path class="st32" d="M270.8,353.1c-51,38-55.5,12-51,38"/>
			<path class="st32" d="M310.8,365.8c-51,38-55.5,12-51,38"/>
			<path class="st32" d="M526.9,363.2c48.4,41.3,54.6,15.7,48.4,41.3"/>
			<path class="st32" d="M566.9,352.5c48.4,41.3,54.6,15.7,48.4,41.3"/>
			<circle class="st33" cx="418.7" cy="395.8" r="12.4"/>
		</g>
		<g>
			<g>
				<g>
					<radialGradient id="SVGID_15_" cx="295.9736" cy="136.1884" r="2.4578" gradientUnits="userSpaceOnUse">
						<stop  offset="0" style="stop-color:#FFFFFF"/>
						<stop  offset="1" style="stop-color:#FFFFFF"/>
					</radialGradient>
					<path class="st34" d="M296,138.7c3.2,0,3.2-5,0-5C292.8,133.7,292.8,138.7,296,138.7L296,138.7z"/>
				</g>
			</g>
			<g>
				<g>
					<radialGradient id="SVGID_16_" cx="375.4696" cy="155.6874" r="2.4578" gradientUnits="userSpaceOnUse">
						<stop  offset="0" style="stop-color:#FFFFFF"/>
						<stop  offset="1" style="stop-color:#FFFFFF"/>
					</radialGradient>
					<path class="st35" d="M375.5,158.2c3.2,0,3.2-5,0-5C372.3,153.2,372.2,158.2,375.5,158.2L375.5,158.2z"/>
				</g>
			</g>
			<g>
				<g>
					<radialGradient id="SVGID_17_" cx="303.4732" cy="235.1835" r="2.4578" gradientUnits="userSpaceOnUse">
						<stop  offset="0" style="stop-color:#FFFFFF"/>
						<stop  offset="1" style="stop-color:#FFFFFF"/>
					</radialGradient>
					<path class="st36" d="M303.5,237.7c3.2,0,3.2-5,0-5C300.3,232.7,300.3,237.7,303.5,237.7L303.5,237.7z"/>
				</g>
			</g>
			<g>
				<g>
					<radialGradient id="SVGID_18_" cx="355.9706" cy="481.1712" r="2.4578" gradientUnits="userSpaceOnUse">
						<stop  offset="0" style="stop-color:#FFFFFF"/>
						<stop  offset="1" style="stop-color:#FFFFFF"/>
					</radialGradient>
					<path class="st37" d="M356,483.7c3.2,0,3.2-5,0-5C352.8,478.7,352.7,483.7,356,483.7L356,483.7z"/>
				</g>
			</g>
			<g>
				<g>
					<radialGradient id="SVGID_19_" cx="175.9796" cy="383.6761" r="2.4578" gradientUnits="userSpaceOnUse">
						<stop  offset="0" style="stop-color:#FFFFFF"/>
						<stop  offset="1" style="stop-color:#FFFFFF"/>
					</radialGradient>
					<path class="st38" d="M176,386.2c3.2,0,3.2-5,0-5C172.8,381.2,172.8,386.2,176,386.2L176,386.2z"/>
				</g>
			</g>
			<g>
				<g>
					<radialGradient id="SVGID_20_" cx="133.9817" cy="256.1824" r="2.4578" gradientUnits="userSpaceOnUse">
						<stop  offset="0" style="stop-color:#FFFFFF"/>
						<stop  offset="1" style="stop-color:#FFFFFF"/>
					</radialGradient>
					<path class="st39" d="M134,258.7c3.2,0,3.2-5,0-5C130.8,253.7,130.8,258.7,134,258.7L134,258.7z"/>
				</g>
			</g>
			<g>
				<g>
					<radialGradient id="SVGID_21_" cx="252.4758" cy="319.1793" r="2.4578" gradientUnits="userSpaceOnUse">
						<stop  offset="0" style="stop-color:#FFFFFF"/>
						<stop  offset="1" style="stop-color:#FFFFFF"/>
					</radialGradient>
					<path class="st40" d="M252.5,321.7c3.2,0,3.2-5,0-5C249.3,316.7,249.3,321.7,252.5,321.7L252.5,321.7z"/>
				</g>
			</g>
			<g>
				<g>
					<radialGradient id="SVGID_22_" cx="616.9576" cy="265.182" r="2.4578" gradientUnits="userSpaceOnUse">
						<stop  offset="0" style="stop-color:#FFFFFF"/>
						<stop  offset="1" style="stop-color:#FFFFFF"/>
					</radialGradient>
					<path class="st41" d="M617,267.7c3.2,0,3.2-5,0-5C613.7,262.7,613.7,267.7,617,267.7L617,267.7z"/>
				</g>
			</g>
			<g>
				<g>
					<radialGradient id="SVGID_23_" cx="690.4539" cy="316.1794" r="2.4578" gradientUnits="userSpaceOnUse">
						<stop  offset="0" style="stop-color:#FFFFFF"/>
						<stop  offset="1" style="stop-color:#FFFFFF"/>
					</radialGradient>
					<path class="st42" d="M690.5,318.7c3.2,0,3.2-5,0-5C687.2,313.7,687.2,318.7,690.5,318.7L690.5,318.7z"/>
				</g>
			</g>
			<g>
				<g>
					<radialGradient id="SVGID_24_" cx="604.9581" cy="343.1781" r="2.4578" gradientUnits="userSpaceOnUse">
						<stop  offset="0" style="stop-color:#FFFFFF"/>
						<stop  offset="1" style="stop-color:#FFFFFF"/>
					</radialGradient>
					<path class="st43" d="M605,345.7c3.2,0,3.2-5,0-5C601.7,340.7,601.7,345.7,605,345.7L605,345.7z"/>
				</g>
			</g>
			<g>
				<g>
					<radialGradient id="SVGID_25_" cx="546.4611" cy="281.6812" r="2.4578" gradientUnits="userSpaceOnUse">
						<stop  offset="0" style="stop-color:#FFFFFF"/>
						<stop  offset="1" style="stop-color:#FFFFFF"/>
					</radialGradient>
					<path class="st44" d="M546.5,284.2c3.2,0,3.2-5,0-5C543.2,279.2,543.2,284.2,546.5,284.2L546.5,284.2z"/>
				</g>
			</g>
			<g>
				<g>
					<radialGradient id="SVGID_26_" cx="645.4561" cy="428.6738" r="2.4578" gradientUnits="userSpaceOnUse">
						<stop  offset="0" style="stop-color:#FFFFFF"/>
						<stop  offset="1" style="stop-color:#FFFFFF"/>
					</radialGradient>
					<path class="st45" d="M645.5,431.2c3.2,0,3.2-5,0-5C642.2,426.2,642.2,431.2,645.5,431.2L645.5,431.2z"/>
				</g>
			</g>
			<linearGradient id="SVGID_27_" gradientUnits="userSpaceOnUse" x1="626.5132" y1="319.1793" x2="678.1536" y2="319.1793">
				<stop  offset="0" style="stop-color:#6A953F"/>
				<stop  offset="0.3247" style="stop-color:#588F3F"/>
				<stop  offset="0.9612" style="stop-color:#138040"/>
				<stop  offset="1" style="stop-color:#058040"/>
			</linearGradient>
			<circle class="st46" cx="652.3" cy="319.2" r="25.8"/>
			<linearGradient id="SVGID_28_" gradientUnits="userSpaceOnUse" x1="626.5132" y1="319.1793" x2="678.1536" y2="319.1793">
				<stop  offset="0" style="stop-color:#A99C34"/>
				<stop  offset="0.2675" style="stop-color:#B7AB35"/>
				<stop  offset="0.7913" style="stop-color:#E1D53E"/>
				<stop  offset="1" style="stop-color:#F6ED44"/>
			</linearGradient>
			<circle class="st47" cx="652.3" cy="319.2" r="25.8"/>
			<radialGradient id="SVGID_29_" cx="642.6284" cy="305.8747" r="3.6301" gradientUnits="userSpaceOnUse">
				<stop  offset="0" style="stop-color:#323292"/>
				<stop  offset="0.1126" style="stop-color:#303D97"/>
				<stop  offset="0.3328" style="stop-color:#2955A5"/>
				<stop  offset="0.5017" style="stop-color:#2068B3"/>
				<stop  offset="0.8478" style="stop-color:#1086AD"/>
				<stop  offset="1" style="stop-color:#0094AA"/>
			</radialGradient>
			<ellipse class="st48" cx="642.6" cy="305.9" rx="4.7" ry="2.1"/>
			
				<radialGradient id="SVGID_30_" cx="-634.3661" cy="-191.344" r="2.0035" gradientTransform="matrix(-0.6728 0.7398 -0.7398 -0.6728 105.605 660.7307)" gradientUnits="userSpaceOnUse">
				<stop  offset="0" style="stop-color:#323292"/>
				<stop  offset="0.1126" style="stop-color:#303D97"/>
				<stop  offset="0.3328" style="stop-color:#2955A5"/>
				<stop  offset="0.5017" style="stop-color:#2068B3"/>
				<stop  offset="0.8478" style="stop-color:#1086AD"/>
				<stop  offset="1" style="stop-color:#0094AA"/>
			</radialGradient>
			<path class="st49" d="M672.3,322c-0.5-0.5-0.2-1.7,0.7-2.7c0.9-1,2.1-1.4,2.7-1s0.2,1.7-0.7,2.7S672.8,322.5,672.3,322z"/>
			<radialGradient id="SVGID_31_" cx="645.7534" cy="326.6696" r="2.6722" gradientUnits="userSpaceOnUse">
				<stop  offset="0" style="stop-color:#323292"/>
				<stop  offset="0.1126" style="stop-color:#303D97"/>
				<stop  offset="0.3328" style="stop-color:#2955A5"/>
				<stop  offset="0.5017" style="stop-color:#2068B3"/>
				<stop  offset="0.8478" style="stop-color:#1086AD"/>
				<stop  offset="1" style="stop-color:#0094AA"/>
			</radialGradient>
			<ellipse class="st50" cx="645.8" cy="326.7" rx="3.1" ry="2.1"/>
		</g>
	</g>
</g>
</svg>
